<?xml version="1.0" encoding="UTF-8"?>
<svg
    width="150pt"
    height="150pt"
    style="isolation: isolate"
    viewBox="0 0 150 150"
    xmlns="http://www.w3.org/2000/svg"
>
    <defs>
        <clipPath id="a">
            <rect width="150" height="150" />
        </clipPath>
    </defs>
    <g clip-path="url(#a)">
        <path
            d="m75 0c41.392 0 75 33.608 75 75 0 41.397-33.608 74.999-75 74.999s-75-33.602-75-74.999c0-41.392 33.608-75 75-75zm5e-3 142.15c-37.086 0-67.155-30.069-67.155-67.155 0-8.309 1.534-16.275 4.296-23.615 1.07-1.795 2.2-3.509 3.429-5.183 11.293-15.408 29.543-25.43 50.133-25.43 27.467 0 49.752 22.264 49.752 49.731 0 21.981-17.828 39.788-39.809 39.788-17.565 0-31.823-14.257-31.823-31.823 0-14.076 11.394-25.47 25.47-25.47 10.809 0 19.622 8.409 20.308 19.037 0.04 0.444 0.06 0.888 0.06 1.351 0 8.995-7.3 16.295-16.294 16.295-6.756 0-12.302-5.142-12.967-11.717 0.685 10.628 9.498 19.038 20.307 19.038 14.057 0 25.451-11.395 25.451-25.451 0-17.585-14.238-31.843-31.823-31.843-21.982 0-39.789 17.807-39.789 39.789 0 27.467 22.264 49.731 49.731 49.731 22.849 0 42.794-12.322 53.608-30.654-9.544 25.451-34.087 43.581-62.885 43.581z"
            fill="#fff"
            fill-rule="evenodd"
        />
    </g>
</svg>
